<?xml version="1.0" standalone="no"?>
<!DOCTYPE svg PUBLIC "-//W3C//DTD SVG 20010904//EN"
 "http://www.w3.org/TR/2001/REC-SVG-20010904/DTD/svg10.dtd">
<svg version="1.0" xmlns="http://www.w3.org/2000/svg"
 width="225.000000pt" height="225.000000pt" viewBox="0 0 225.000000 225.000000"
 preserveAspectRatio="xMidYMid meet">
<metadata>
Created by potrace 1.14, written by Peter Selinger 2001-2017
</metadata>
<g transform="translate(0.000000,225.000000) scale(0.100000,-0.100000)"
fill="#000000" stroke="none">
<path d="M945 2174 c-232 -41 -445 -157 -603 -330 -350 -381 -375 -951 -58
-1372 72 -97 152 -137 271 -137 67 0 89 4 135 27 61 30 325 261 348 304 12 23
12 34 -2 83 -21 74 -20 117 3 166 19 41 298 325 319 325 13 0 42 -28 42 -42 0
-5 -51 -61 -112 -125 -62 -63 -113 -119 -112 -124 1 -5 2 -13 3 -19 0 -5 11
-10 23 -10 15 0 60 37 133 110 62 61 117 110 123 110 14 0 42 -28 42 -42 0 -6
-49 -61 -110 -123 -109 -110 -130 -145 -94 -159 12 -5 50 26 133 109 65 63
122 115 128 115 15 0 43 -28 43 -42 0 -6 -52 -63 -115 -128 -81 -83 -113 -123
-109 -134 14 -36 50 -16 149 85 55 55 108 105 118 110 22 12 57 -5 57 -29 0
-9 -69 -85 -152 -169 -169 -166 -192 -180 -282 -169 -28 4 -72 9 -98 12 l-47
6 -61 -63 c-33 -35 -77 -88 -97 -118 -35 -49 -38 -59 -38 -120 1 -98 41 -161
130 -202 49 -23 115 -24 231 -4 132 23 188 41 309 101 284 138 479 380 562
694 23 90 27 124 27 245 0 239 -53 420 -180 610 -50 76 -109 131 -172 162 -49
24 -69 28 -137 27 -59 0 -93 -6 -127 -22 -51 -23 -334 -269 -357 -310 -11 -21
-11 -32 3 -75 21 -65 20 -122 -3 -172 -21 -46 -159 -183 -211 -210 -48 -26
-162 -26 -212 -1 -116 57 -172 187 -133 307 15 45 35 71 114 151 89 89 100 97
146 103 35 6 70 3 121 -10 87 -22 87 -21 187 92 89 100 111 147 105 224 -6 79
-44 134 -117 172 -63 31 -133 35 -266 11z"/>
</g>
</svg>
